<svg xmlns="http://www.w3.org/2000/svg" xmlns:xlink="http://www.w3.org/1999/xlink" width="500" zoomAndPan="magnify" viewBox="0 0 375 374.999991" height="500" preserveAspectRatio="xMidYMid meet" version="1.0"><defs><g/><clipPath id="e511155a6f"><path d="M 37.5 37.5 L 337.5 37.5 L 337.5 337.5 L 37.5 337.5 Z M 37.5 37.5 " clip-rule="nonzero"/></clipPath><clipPath id="dc7976e433"><path d="M 187.5 37.5 C 104.65625 37.5 37.5 104.65625 37.5 187.5 C 37.5 270.34375 104.65625 337.5 187.5 337.5 C 270.34375 337.5 337.5 270.34375 337.5 187.5 C 337.5 104.65625 270.34375 37.5 187.5 37.5 Z M 187.5 37.5 " clip-rule="nonzero"/></clipPath></defs><g clip-path="url(#e511155a6f)"><g clip-path="url(#dc7976e433)"><path fill="#272727" d="M 37.5 37.5 L 337.5 37.5 L 337.5 337.5 L 37.5 337.5 Z M 37.5 37.5 " fill-opacity="1" fill-rule="nonzero"/></g></g><g fill="#ffffff" fill-opacity="1"><g transform="translate(76.317042, 239.400325)"><g><path d="M 88.453125 0 L 43.28125 -52.1875 L 43.28125 0 L 11.5625 0 L 11.5625 -107.515625 L 41.71875 -107.515625 L 86.890625 -54.53125 L 86.890625 -107.515625 L 118.609375 -107.515625 L 118.609375 0 Z M 88.453125 0 "/></g></g></g><path stroke-linecap="butt" transform="matrix(0.494289, 0, 0, 0.494289, 119.961465, 78.262113)" fill="none" stroke-linejoin="miter" d="M 290.899732 325.996182 L 290.899732 247.584943 C 290.899732 237.911958 291.26326 227.954473 291.982411 217.712489 C 292.756882 207.470505 293.555062 198.880199 294.376949 191.933668 C 295.198837 184.987137 295.712517 180.561588 295.917989 178.657022 L 294.685157 178.657022 L 254.547011 325.996182 L 199.828263 325.996182 L 159.381909 178.96523 L 158.149077 178.96523 C 158.354549 180.869796 158.915645 185.247928 159.848172 192.091723 C 160.772795 198.935518 161.650002 207.470505 162.47189 217.712489 C 163.341194 227.954473 163.783749 237.911958 163.783749 247.584943 L 163.783749 325.996182 L 99.644904 325.996182 L 99.644904 108.49627 L 198.279321 108.49627 L 231.162728 234.000089 L 232.395559 234.000089 L 264.970759 108.49627 L 360.135861 108.49627 L 360.135861 325.996182 Z M 290.899732 325.996182 " stroke="#272727" stroke-width="45.050236" stroke-opacity="1" stroke-miterlimit="4"/><g fill="#ffffff" fill-opacity="1"><g transform="translate(159.828961, 239.400325)"><g><path d="M 103.921875 0 L 103.921875 -38.75 C 103.921875 -43.539062 104.101562 -48.460938 104.46875 -53.515625 C 104.832031 -58.566406 105.222656 -62.8125 105.640625 -66.25 C 106.054688 -69.6875 106.316406 -71.875 106.421875 -72.8125 L 105.796875 -72.8125 L 85.953125 0 L 58.90625 0 L 38.90625 -72.65625 L 38.28125 -72.65625 C 38.382812 -71.71875 38.671875 -69.554688 39.140625 -66.171875 C 39.609375 -62.785156 40.050781 -58.566406 40.46875 -53.515625 C 40.882812 -48.460938 41.09375 -43.539062 41.09375 -38.75 L 41.09375 0 L 9.375 0 L 9.375 -107.515625 L 58.125 -107.515625 L 74.375 -45.46875 L 75 -45.46875 L 91.109375 -107.515625 L 138.140625 -107.515625 L 138.140625 0 Z M 103.921875 0 "/></g></g></g><g fill="#ffffff" fill-opacity="1"><g transform="translate(141.92035, 272.194141)"><g><path d="M 4.09375 -8.453125 L 4.09375 0 L 0.984375 0 L 0.984375 -13.625 L 4.09375 -13.625 L 9.515625 -5.171875 L 9.546875 -5.171875 L 9.546875 -13.625 L 12.65625 -13.625 L 12.65625 0 L 9.546875 0 L 4.125 -8.453125 Z M 4.09375 -8.453125 "/></g></g></g><g fill="#ffffff" fill-opacity="1"><g transform="translate(156.633029, 272.194141)"><g><path d="M 8.78125 -13.625 L 8.78125 -10.90625 L 4.09375 -10.90625 L 4.09375 -8.1875 L 8.59375 -8.1875 L 8.59375 -5.46875 L 4.09375 -5.46875 L 4.09375 -2.71875 L 8.78125 -2.71875 L 8.78125 0 L 0.984375 0 L 0.984375 -13.625 Z M 8.78125 -13.625 "/></g></g></g><g fill="#ffffff" fill-opacity="1"><g transform="translate(167.283835, 272.194141)"><g><path d="M 13.734375 0 L 9.734375 0 L 6.5 -4.640625 L 3.28125 0 L -0.5625 0 L 4.59375 -7.328125 L 0.296875 -13.625 L 4 -13.625 L 6.5 -9.90625 L 9.015625 -13.625 L 12.875 -13.625 L 8.421875 -7.328125 Z M 13.734375 0 "/></g></g></g><g fill="#ffffff" fill-opacity="1"><g transform="translate(181.534186, 272.194141)"><g><path d="M 0.375 -6.828125 C 0.375 -8.796875 1.046875 -10.460938 2.390625 -11.828125 C 3.734375 -13.191406 5.351562 -13.875 7.25 -13.875 C 9.15625 -13.875 10.773438 -13.191406 12.109375 -11.828125 C 13.441406 -10.472656 14.109375 -8.804688 14.109375 -6.828125 C 14.109375 -4.828125 13.453125 -3.144531 12.140625 -1.78125 C 10.828125 -0.425781 9.195312 0.25 7.25 0.25 C 5.257812 0.25 3.613281 -0.421875 2.3125 -1.765625 C 1.019531 -3.117188 0.375 -4.804688 0.375 -6.828125 Z M 3.734375 -6.828125 C 3.734375 -6.109375 3.84375 -5.453125 4.0625 -4.859375 C 4.28125 -4.273438 4.664062 -3.78125 5.21875 -3.375 C 5.769531 -2.96875 6.445312 -2.765625 7.25 -2.765625 C 8.40625 -2.765625 9.273438 -3.160156 9.859375 -3.953125 C 10.453125 -4.742188 10.75 -5.703125 10.75 -6.828125 C 10.75 -7.929688 10.445312 -8.882812 9.84375 -9.6875 C 9.25 -10.488281 8.382812 -10.890625 7.25 -10.890625 C 6.125 -10.890625 5.253906 -10.488281 4.640625 -9.6875 C 4.035156 -8.882812 3.734375 -7.929688 3.734375 -6.828125 Z M 3.734375 -6.828125 "/></g></g></g><g fill="#ffffff" fill-opacity="1"><g transform="translate(197.088966, 272.194141)"><g/></g></g><g fill="#ffffff" fill-opacity="1"><g transform="translate(202.670689, 272.194141)"><g><path d="M 12.25 0 L 11.609375 -8.078125 L 11.53125 -8.078125 L 8.734375 -0.078125 L 6.890625 -0.078125 L 4.09375 -8.078125 L 4.015625 -8.078125 L 3.375 0 L 0.265625 0 L 1.484375 -13.625 L 4.796875 -13.625 L 7.8125 -5.765625 L 10.828125 -13.625 L 14.140625 -13.625 L 15.359375 0 Z M 12.25 0 "/></g></g></g><g fill="#ffffff" fill-opacity="1"><g transform="translate(219.364774, 272.194141)"><g><path d="M 7.90625 -13.625 L 13.40625 0 L 10.078125 0 L 9.0625 -2.71875 L 3.875 -2.71875 L 2.875 0 L -0.46875 0 L 5.03125 -13.625 Z M 8.015625 -5.453125 L 6.484375 -9.40625 L 6.453125 -9.40625 L 4.9375 -5.453125 Z M 8.015625 -5.453125 "/></g></g></g><g fill="#ffffff" fill-opacity="1"><g transform="translate(233.383963, 272.194141)"><g><path d="M 0.984375 -13.625 L 5.859375 -13.625 C 7.171875 -13.625 8.238281 -13.273438 9.0625 -12.578125 C 9.894531 -11.878906 10.3125 -10.878906 10.3125 -9.578125 C 10.3125 -8.578125 10.054688 -7.738281 9.546875 -7.0625 C 9.046875 -6.382812 8.367188 -5.90625 7.515625 -5.625 L 12.203125 0 L 8.265625 0 L 4.09375 -5.390625 L 4.09375 0 L 0.984375 0 Z M 4.09375 -7.578125 L 4.453125 -7.578125 C 4.742188 -7.578125 4.988281 -7.582031 5.1875 -7.59375 C 5.382812 -7.601562 5.609375 -7.640625 5.859375 -7.703125 C 6.117188 -7.773438 6.320312 -7.867188 6.46875 -7.984375 C 6.625 -8.109375 6.753906 -8.285156 6.859375 -8.515625 C 6.972656 -8.753906 7.03125 -9.035156 7.03125 -9.359375 C 7.03125 -9.691406 6.972656 -9.972656 6.859375 -10.203125 C 6.753906 -10.429688 6.625 -10.609375 6.46875 -10.734375 C 6.320312 -10.859375 6.117188 -10.953125 5.859375 -11.015625 C 5.609375 -11.078125 5.382812 -11.113281 5.1875 -11.125 C 4.988281 -11.132812 4.742188 -11.140625 4.453125 -11.140625 L 4.09375 -11.140625 Z M 4.09375 -7.578125 "/></g></g></g><g fill="#ffffff" fill-opacity="1"><g transform="translate(246.280366, 272.194141)"><g><path d="M 13.390625 0 L 9.109375 0 L 4.09375 -5.78125 L 4.09375 0 L 0.984375 0 L 0.984375 -13.625 L 4.09375 -13.625 L 4.09375 -8.0625 L 8.765625 -13.625 L 12.53125 -13.625 L 7.046875 -7.171875 Z M 13.390625 0 "/></g></g></g><g fill="#ffffff" fill-opacity="1"><g transform="translate(75.806559, 333.152717)"><g><path d="M 12.1875 0 L 12.1875 -99.765625 L 44.21875 -99.765625 L 44.21875 0 Z M 12.1875 0 "/></g></g></g><g fill="#ffffff" fill-opacity="1"><g transform="translate(157.249309, 135.049941)"><g><path d="M 11.921875 0 L 11.921875 -97.703125 L 43.3125 -97.703125 L 43.3125 0 Z M 11.921875 0 "/></g></g></g></svg>